<mxfile host="app.diagrams.net" modified="2023-08-30T17:03:10.323Z" agent="Mozilla/5.0 (Windows NT 10.0; Win64; x64; rv:109.0) Gecko/20100101 Firefox/116.0" etag="sfj8XATmAto_cXza8A0x" version="21.7.0" type="github">
  <diagram name="Página-1" id="OjL-2Up-HdLbDBdXpQpn">
    <mxGraphModel dx="1434" dy="782" grid="1" gridSize="10" guides="1" tooltips="1" connect="1" arrows="1" fold="1" page="1" pageScale="1" pageWidth="827" pageHeight="1169" math="0" shadow="0">
      <root>
        <mxCell id="0" />
        <mxCell id="1" parent="0" />
        <mxCell id="GiEFZo3kaDlm1XvMZs04-17" value="" style="edgeStyle=orthogonalEdgeStyle;rounded=0;orthogonalLoop=1;jettySize=auto;html=1;" parent="1" source="GiEFZo3kaDlm1XvMZs04-1" target="GiEFZo3kaDlm1XvMZs04-3" edge="1">
          <mxGeometry relative="1" as="geometry" />
        </mxCell>
        <mxCell id="GiEFZo3kaDlm1XvMZs04-1" value="&amp;lt;início&amp;gt;" style="rounded=1;whiteSpace=wrap;html=1;fillColor=#fff2cc;strokeColor=#d6b656;" parent="1" vertex="1">
          <mxGeometry x="120" y="40" width="120" height="40" as="geometry" />
        </mxCell>
        <mxCell id="GiEFZo3kaDlm1XvMZs04-2" value="&amp;lt;fim&amp;gt;" style="rounded=1;whiteSpace=wrap;html=1;fillColor=#fff2cc;strokeColor=#d6b656;" parent="1" vertex="1">
          <mxGeometry x="550" y="380" width="120" height="40" as="geometry" />
        </mxCell>
        <mxCell id="GiEFZo3kaDlm1XvMZs04-3" value="separe:&lt;br&gt;-2 xícaras (chá) de açúcar&lt;br&gt;-3 xícaras (chá) de farinha de trigo&lt;br&gt;-4 colheres (sopa) de margarina&lt;br&gt;-3 ovos&lt;br&gt;-1 e 1/2 xícara (chá) de leite&lt;br&gt;-1 colher (sopa) bem cheia de fermento em pó" style="rounded=0;whiteSpace=wrap;html=1;fillColor=#dae8fc;strokeColor=#6c8ebf;" parent="1" vertex="1">
          <mxGeometry x="120" y="120" width="120" height="200" as="geometry" />
        </mxCell>
        <mxCell id="GiEFZo3kaDlm1XvMZs04-8" value="" style="edgeStyle=orthogonalEdgeStyle;rounded=0;orthogonalLoop=1;jettySize=auto;html=1;entryX=0;entryY=0.5;entryDx=0;entryDy=0;exitX=1;exitY=0.5;exitDx=0;exitDy=0;" parent="1" source="KOswqhCLmxAA5NC92gFx-1" target="GiEFZo3kaDlm1XvMZs04-5" edge="1">
          <mxGeometry relative="1" as="geometry">
            <mxPoint x="240" y="597.5" as="sourcePoint" />
            <mxPoint x="410" y="270" as="targetPoint" />
            <Array as="points">
              <mxPoint x="290" y="390" />
              <mxPoint x="290" y="150" />
            </Array>
          </mxGeometry>
        </mxCell>
        <mxCell id="GiEFZo3kaDlm1XvMZs04-9" value="" style="edgeStyle=orthogonalEdgeStyle;rounded=0;orthogonalLoop=1;jettySize=auto;html=1;" parent="1" source="GiEFZo3kaDlm1XvMZs04-5" target="GiEFZo3kaDlm1XvMZs04-6" edge="1">
          <mxGeometry relative="1" as="geometry" />
        </mxCell>
        <mxCell id="GiEFZo3kaDlm1XvMZs04-5" value="misture as gemas, a margarina e o açúcar até ficar homogêneo" style="rounded=0;whiteSpace=wrap;html=1;fillColor=#dae8fc;strokeColor=#6c8ebf;" parent="1" vertex="1">
          <mxGeometry x="320" y="120" width="120" height="60" as="geometry" />
        </mxCell>
        <mxCell id="GiEFZo3kaDlm1XvMZs04-11" value="" style="edgeStyle=orthogonalEdgeStyle;rounded=0;orthogonalLoop=1;jettySize=auto;html=1;" parent="1" source="GiEFZo3kaDlm1XvMZs04-6" target="GiEFZo3kaDlm1XvMZs04-10" edge="1">
          <mxGeometry relative="1" as="geometry" />
        </mxCell>
        <mxCell id="GiEFZo3kaDlm1XvMZs04-6" value="acrescente o leite e a farinha de trigo aos poucos, sem parar de bater" style="rounded=0;whiteSpace=wrap;html=1;fillColor=#dae8fc;strokeColor=#6c8ebf;" parent="1" vertex="1">
          <mxGeometry x="320" y="220" width="120" height="70" as="geometry" />
        </mxCell>
        <mxCell id="GiEFZo3kaDlm1XvMZs04-13" style="edgeStyle=orthogonalEdgeStyle;rounded=0;orthogonalLoop=1;jettySize=auto;html=1;entryX=0;entryY=0.5;entryDx=0;entryDy=0;" parent="1" source="GiEFZo3kaDlm1XvMZs04-10" target="GiEFZo3kaDlm1XvMZs04-12" edge="1">
          <mxGeometry relative="1" as="geometry" />
        </mxCell>
        <mxCell id="GiEFZo3kaDlm1XvMZs04-10" value="adicione as claras em neve e o fermento" style="rounded=0;whiteSpace=wrap;html=1;fillColor=#dae8fc;strokeColor=#6c8ebf;" parent="1" vertex="1">
          <mxGeometry x="320" y="320" width="120" height="60" as="geometry" />
        </mxCell>
        <mxCell id="GiEFZo3kaDlm1XvMZs04-15" value="" style="edgeStyle=orthogonalEdgeStyle;rounded=0;orthogonalLoop=1;jettySize=auto;html=1;" parent="1" source="GiEFZo3kaDlm1XvMZs04-12" target="GiEFZo3kaDlm1XvMZs04-14" edge="1">
          <mxGeometry relative="1" as="geometry" />
        </mxCell>
        <mxCell id="GiEFZo3kaDlm1XvMZs04-12" value="despeje em uma forma untada e enfarinhada" style="rounded=0;whiteSpace=wrap;html=1;fillColor=#dae8fc;strokeColor=#6c8ebf;" parent="1" vertex="1">
          <mxGeometry x="520" y="40" width="120" height="60" as="geometry" />
        </mxCell>
        <mxCell id="GiEFZo3kaDlm1XvMZs04-20" value="" style="edgeStyle=orthogonalEdgeStyle;rounded=0;orthogonalLoop=1;jettySize=auto;html=1;entryX=0.5;entryY=0;entryDx=0;entryDy=0;" parent="1" source="GiEFZo3kaDlm1XvMZs04-14" target="GiEFZo3kaDlm1XvMZs04-22" edge="1">
          <mxGeometry relative="1" as="geometry">
            <mxPoint x="580" y="270" as="targetPoint" />
          </mxGeometry>
        </mxCell>
        <mxCell id="GiEFZo3kaDlm1XvMZs04-14" value="asse em um forno préaquecido a 180° por 40 minutos aprox." style="rounded=0;whiteSpace=wrap;html=1;fillColor=#dae8fc;strokeColor=#6c8ebf;" parent="1" vertex="1">
          <mxGeometry x="520" y="160" width="120" height="60" as="geometry" />
        </mxCell>
        <mxCell id="GiEFZo3kaDlm1XvMZs04-30" style="edgeStyle=orthogonalEdgeStyle;rounded=0;orthogonalLoop=1;jettySize=auto;html=1;exitX=1;exitY=0.5;exitDx=0;exitDy=0;" parent="1" source="GiEFZo3kaDlm1XvMZs04-22" target="GiEFZo3kaDlm1XvMZs04-29" edge="1">
          <mxGeometry relative="1" as="geometry" />
        </mxCell>
        <mxCell id="GiEFZo3kaDlm1XvMZs04-33" value="sim" style="edgeLabel;html=1;align=center;verticalAlign=middle;resizable=0;points=[];" parent="GiEFZo3kaDlm1XvMZs04-30" vertex="1" connectable="0">
          <mxGeometry x="-0.074" relative="1" as="geometry">
            <mxPoint as="offset" />
          </mxGeometry>
        </mxCell>
        <mxCell id="GiEFZo3kaDlm1XvMZs04-22" value="ficou bom?" style="rhombus;whiteSpace=wrap;html=1;fillColor=#e1d5e7;strokeColor=#9673a6;" parent="1" vertex="1">
          <mxGeometry x="540" y="260" width="80" height="80" as="geometry" />
        </mxCell>
        <mxCell id="GiEFZo3kaDlm1XvMZs04-24" value="" style="endArrow=classic;html=1;rounded=0;entryX=0.25;entryY=0;entryDx=0;entryDy=0;" parent="1" target="GiEFZo3kaDlm1XvMZs04-2" edge="1">
          <mxGeometry relative="1" as="geometry">
            <mxPoint x="580" y="340" as="sourcePoint" />
            <mxPoint x="680" y="340" as="targetPoint" />
          </mxGeometry>
        </mxCell>
        <mxCell id="GiEFZo3kaDlm1XvMZs04-25" value="não" style="edgeLabel;resizable=0;html=1;align=center;verticalAlign=middle;" parent="GiEFZo3kaDlm1XvMZs04-24" connectable="0" vertex="1">
          <mxGeometry relative="1" as="geometry">
            <mxPoint as="offset" />
          </mxGeometry>
        </mxCell>
        <mxCell id="GiEFZo3kaDlm1XvMZs04-34" style="edgeStyle=orthogonalEdgeStyle;rounded=0;orthogonalLoop=1;jettySize=auto;html=1;entryX=1.001;entryY=0.426;entryDx=0;entryDy=0;entryPerimeter=0;" parent="1" source="GiEFZo3kaDlm1XvMZs04-29" target="GiEFZo3kaDlm1XvMZs04-2" edge="1">
          <mxGeometry relative="1" as="geometry">
            <mxPoint x="720" y="400" as="targetPoint" />
            <Array as="points">
              <mxPoint x="720" y="397" />
            </Array>
          </mxGeometry>
        </mxCell>
        <mxCell id="GiEFZo3kaDlm1XvMZs04-29" value="se inscreva no canal" style="rounded=0;whiteSpace=wrap;html=1;fillColor=#dae8fc;strokeColor=#6c8ebf;" parent="1" vertex="1">
          <mxGeometry x="680" y="270" width="80" height="60" as="geometry" />
        </mxCell>
        <mxCell id="KOswqhCLmxAA5NC92gFx-1" value="bata as claras em neve em uma vasilha e reserve" style="rounded=0;whiteSpace=wrap;html=1;fillColor=#dae8fc;strokeColor=#6c8ebf;" vertex="1" parent="1">
          <mxGeometry x="120" y="360" width="120" height="60" as="geometry" />
        </mxCell>
      </root>
    </mxGraphModel>
  </diagram>
</mxfile>
